<svg xmlns="http://www.w3.org/2000/svg">
	<symbol id="bandcamp" viewBox="0 0 24 24">
		<path d="M0 18.75l7.437-13.5H24l-7.438 13.5H0z"/>
	</symbol>

	<symbol id="bitbucket" viewBox="0 0 24 24">
		<path d="M.778 1.211c-.424-.006-.772.334-.778.758 0 .045.002.09.01.134l3.263 19.811c.084.499.515.867 1.022.872H19.95c.382.004.708-.271.77-.646l3.27-20.03c.068-.418-.216-.813-.635-.881-.045-.008-.089-.011-.133-.01L.778 1.211zM14.52 15.528H9.522L8.17 8.464h7.561l-1.211 7.064z"/>
	</symbol>

	<symbol id="codepen" viewBox="0 0 24 24">
		<path d="M24 8.182l-.018-.087-.017-.05c-.01-.024-.018-.05-.03-.075-.003-.018-.015-.034-.02-.05l-.035-.067-.03-.05-.044-.06-.046-.045-.06-.045-.046-.03-.06-.044-.044-.04-.015-.02L12.58.19c-.347-.232-.796-.232-1.142 0L.453 7.502l-.015.015-.044.035-.06.05-.038.04-.05.056-.037.045-.05.06c-.02.017-.03.03-.03.046l-.05.06-.02.06c-.02.01-.02.04-.03.07l-.01.05C0 8.12 0 8.15 0 8.18v7.497c0 .044.003.09.01.135l.01.046c.005.03.01.06.02.086l.015.05c.01.027.016.053.027.075l.022.05c0 .01.015.04.03.06l.03.04c.015.01.03.04.045.06l.03.04.04.04c.01.013.01.03.03.03l.06.042.04.03.01.014 10.97 7.33c.164.12.375.163.57.163s.39-.06.57-.18l10.99-7.28.014-.01.046-.037.06-.043.048-.036.052-.058.033-.045.04-.06.03-.05.03-.07.016-.052.03-.077.015-.045.03-.08v-7.5c0-.05 0-.095-.016-.14l-.014-.045.044.003zm-11.99 6.28l-3.65-2.44 3.65-2.442 3.65 2.44-3.65 2.44zm-1.034-6.674l-4.473 2.99L2.89 8.362l8.086-5.39V7.79zm-6.33 4.233l-2.582 1.73V10.3l2.582 1.726zm1.857 1.25l4.473 2.99v4.82L2.89 15.69l3.618-2.417v-.004zm6.537 2.99l4.474-2.98 3.613 2.42-8.087 5.39v-4.82zm6.33-4.23l2.583-1.72v3.456l-2.583-1.73zm-1.855-1.24L13.042 7.8V2.97l8.085 5.39-3.612 2.415v.003z"/>
	</symbol>

	<symbol id="codewars" viewBox="0 0 24 24">
		<path d="M.76 12.2l-.08-.04c-.18-.1-.32-.25-.42-.44-.14-.26-.2-.5-.2-.75l.02-.13c0-.2.05-.38.14-.55l.08-.15c.04-.08.1-.15.15-.22.06-.07.07-.16.05-.24l-.05-.16c-.06-.2-.1-.4-.1-.6L.32 8.8c0-.22.06-.44.2-.6l.1-.13c.07-.1.18-.16.3-.2.1-.03.17-.13.18-.25l.02-.34c0-.27.13-.52.33-.7l.24-.18c.05-.05.1-.1.14-.18.05-.06.06-.14.05-.2-.02-.1 0-.13.05-.14.16.06.26.04.33-.04l.13-.17.36-.4c.1-.1.14-.28.08-.42l-.12-.26c-.02-.06 0-.13.05-.15.13 0 .22.05.26.13l.04.07c.06.12.2.18.3.13.22-.08.4-.1.57-.1h.32c.22 0 .4-.15.44-.38.04-.28.14-.5.28-.65.15-.17.32-.3.52-.4.26-.14.42-.34.47-.6.07-.32.24-.55.47-.7l.76-.43.22-.13c.13-.08.25-.18.35-.3l.2-.24c.1-.1.2-.17.32-.2.1-.03.24-.05.36-.04l.4.03c.2 0 .36.05.52.12l.1.05c.1.04.2.02.25-.05L10 .7l.43-.45c.1-.1.22-.14.35-.12.13.02.26.07.38.13.18.1.33.14.5.14h.1c.22 0 .44.03.66.08l.15.04c.15.04.3-.02.4-.14.03-.05.1-.06.14-.02.03.02.04.04.05.07.02.2.14.35.3.4l.16.05c.17.05.32.16.42.3.1.15.22.3.36.4l.1.1c.1.1.24.14.38.13h.59c.24 0 .47.04.7.14.22.1.45.12.66.04.22-.07.45-.1.68-.07l.43.07c.2.02.4.12.52.27l.05.05c.1.1.2.23.3.37.06.13.2.2.34.2h.62c.15 0 .3.03.42.1.13.1.24.2.34.3l.1.13c.12.14.18.33.17.53 0 .16.12.3.28.3l.2.02c.14 0 .26.1.33.23l.1.2.26.58c.04.1.05.2.04.28 0 .1.03.18.1.22l.1.07c.13.1.2.25.18.42l-.07.47-.02.2c-.02.1.03.23.12.3.15.1.22.23.23.38v.2c0 .1-.02.22-.1.3-.06.08-.1.18-.1.3l.03.23c0 .16.1.3.2.4.14.1.22.26.24.42.04.25.05.45.05.65v.23c0 .08 0 .16.03.24.02.07.07.14.13.18l.2.15c.2.13.34.3.42.53.1.22.13.45.13.68v.08c0 .18-.02.37-.08.54-.05.18-.04.35.03.5.08.14.13.3.15.47.04.2.02.4-.05.56l-.02.07c-.05.12-.13.23-.23.32-.1.1-.2.16-.26.23-.06.06-.1.16-.07.25l.03.14c.05.2.05.4 0 .58v.08c-.04.15-.1.28-.16.4-.07.13-.17.23-.3.3l-.15.1c-.07.04-.12.13-.12.22 0 .1-.04.2-.1.26l-.15.2c-.1.13-.23.24-.37.3-.14.1-.26.2-.35.3-.1.12-.18.26-.22.4-.04.18-.18.28-.33.28h-.54c-.14 0-.27.1-.33.22-.07.16-.14.27-.23.37-.1.1-.16.22-.2.36-.02.12-.12.2-.22.16-.13-.06-.26 0-.32.1-.12.2-.24.35-.37.48l-.07.06c-.13.1-.3.18-.45.18-.18 0-.27.08-.3.2-.03.1-.05.23-.06.34-.02.12-.06.23-.1.33l-.05.06c-.1.15-.18.3-.28.43l-.04.06c-.13.17-.3.3-.5.35-.24.08-.45.1-.66.1h-.14c-.1 0-.2.06-.27.16l-.06.1-.06.12-.13.22c-.1.18-.25.3-.45.36-.2.05-.43.07-.64.06l-.16-.02c-.14 0-.27-.04-.4-.1-.1-.04-.24 0-.3.1-.1.14-.22.22-.35.26l-.3.1c-.2.05-.42.05-.63 0l-.16-.05c-.1 0-.2-.05-.28-.1-.1-.05-.2-.07-.3-.06l-.13.02c-.2.02-.38 0-.56-.05l-.27-.06c-.12-.04-.23-.12-.3-.23-.05-.1-.16-.18-.3-.2H9.9c-.2-.03-.38-.1-.5-.25L9 22.5l-.14-.12-.22-.16-.13-.1c-.15-.1-.33-.18-.52-.2l-.6-.1c-.06 0-.1-.02-.16-.03L7 21.74c-.1-.02-.2-.1-.27-.2-.06-.1-.17-.14-.27-.1-.2.08-.36.1-.52.13H5.8c-.26.02-.5-.02-.74-.13-.24-.1-.4-.25-.55-.44-.12-.17-.3-.3-.52-.34l-.28-.06c-.2-.04-.4-.12-.58-.24-.2-.14-.3-.27-.38-.43-.08-.15-.13-.32-.14-.5v-.08c-.02-.2-.16-.38-.35-.43-.23-.07-.4-.17-.55-.3-.14-.13-.22-.32-.22-.52l.02-.44c0-.17-.05-.32-.17-.43-.12-.12-.2-.27-.2-.43l-.03-.36c-.02-.26-.07-.52-.13-.78-.06-.23.03-.46.22-.57l.07-.05c.1-.07.14-.2.08-.32l-.08-.1c-.1-.1-.2-.17-.3-.2-.08-.02-.1-.1-.1-.15l.1-.12c.06-.07.05-.18 0-.24-.08-.08-.12-.18-.13-.28l-.02-.7c0-.14.02-.28.06-.42.04-.12 0-.26-.12-.32zm9.9-1.32c.07-.07.06-.2 0-.25-.1-.08-.17-.17-.23-.27l-.1-.16c-.07-.13-.16-.24-.26-.34l-.02-.02c-.1-.08-.17-.18-.23-.3-.05-.1-.05-.2 0-.3l.06-.1c.06-.1.1-.24.1-.36v-.04c0-.1-.04-.2-.1-.3-.04-.08-.08-.18-.1-.28V8.1c-.03-.12 0-.25.08-.35.08-.13.14-.25.17-.4v-.02c.04-.1.02-.23-.04-.33s-.08-.2-.04-.32l.07-.2c.06-.18.15-.34.27-.48l.14-.15.1-.12.06-.06c.06-.06.07-.16.02-.24-.05-.1-.08-.2-.06-.3l.02-.14c.03-.2.1-.4.23-.56l.04-.04c.15-.2.34-.33.56-.4l.27-.1c.12-.04.2-.17.2-.3 0-.16.05-.3.14-.43l.05-.05c.1-.17.22-.34.3-.52l.07-.13c.02-.03.03-.07.03-.1 0-.17-.1-.32-.26-.33L11.76 2c-.25-.02-.5 0-.74 0l-.85.1c-.13 0-.23.1-.24.24 0 .14-.1.26-.22.3l-.36.1-.1.03-.3.1c-.22.07-.4.23-.5.45l-.08.13c-.1.22-.27.4-.48.53-.2.13-.3.34-.32.58v.1c-.02.2-.08.4-.2.54l-.05.08c-.08.1-.1.23-.05.34.05.12.08.25.07.38v.53c0 .14-.1.26-.2.3-.14.05-.23.16-.27.3l-.05.2c-.04.2.03.4.2.52.16.12.26.3.3.52v.18c.03.2.14.4.32.5.18.12.32.3.4.5l.05.16c.08.22.26.35.46.37h.06c.18 0 .34.1.44.26.1.16.26.27.44.3l.28.08c.17.05.33.14.46.27l.02.02c.1.08.26.07.35-.04l.07-.08zm1.14-.92c.1.06.2.03.24-.06l.03-.05c.07-.14.16-.28.26-.4l.2-.3c.03 0 .04-.02.05-.04l.24-.32c.1-.1.22-.17.36-.17.13 0 .24-.07.3-.2.04-.14.1-.27.22-.38l.05-.06c.1-.1.2-.15.3-.2.13-.02.25-.04.37-.04h.3c.12 0 .22-.05.28-.15.06-.1.15-.17.25-.22l.1-.04c.16-.07.34-.12.52-.14l.2-.02c.12 0 .25 0 .37.07.1.07.23.06.33-.02l.07-.04c.15-.1.32-.18.5-.2h.02c.2-.04.38-.04.58-.03h.1c.2.03.37.1.5.25l.03.04c.1.1.26.18.4.18h.17c.05 0 .1-.02.13-.07.03-.03.08-.06.13-.06h.1c.14 0 .27.04.4.08l.17.07c.16.05.33.1.5.12h.12c.08 0 .13-.05.13-.12 0-.1-.02-.2-.07-.28L20.68 7c-.08-.13-.14-.27-.2-.4l-.02-.05c-.05-.1-.05-.2 0-.3V6.2c.02-.08-.02-.17-.1-.2L20.28 6c-.16-.05-.3-.14-.4-.27l-.1-.1c-.1-.1-.16-.25-.2-.4-.05-.13-.16-.23-.3-.23h-.42c-.15-.02-.28-.1-.37-.22l-.04-.05c-.07-.1-.13-.22-.17-.34-.05-.1-.16-.16-.26-.13l-.12.04c-.2.07-.4.1-.6.08l-.16-.02c-.17 0-.33-.07-.46-.17l-.1-.07c-.08-.06-.16-.1-.25-.14-.1-.04-.18-.02-.24.05l-.05.06c-.1.1-.24.18-.38.2l-.54.03c-.1 0-.2.05-.27.12-.08.07-.17.12-.27.14h-.02c-.1 0-.2.07-.3.14v.02c-.1.1-.23.15-.36.15l-.04.02c-.12 0-.24 0-.36.03h-.12c-.17.03-.3.17-.34.35l-.04.23c-.03.16-.1.3-.2.43-.1.12-.22.2-.37.2h-.15-.02c-.1.02-.2.13-.18.25.02.17 0 .32-.03.47l-.04.17c-.04.15-.14.27-.27.32l-.06.03h-.02c-.06.04-.1.13-.05.2.06.1.08.2.07.3l-.03.32c0 .12-.05.23-.1.33-.06.1-.06.2-.02.3l.1.22c.05.1.06.2.03.32-.03.1-.05.2-.04.3 0 .1.06.2.14.24l.02.02zm7.9 7.23c.1.1.25.14.37.06l.2-.13c.1-.07.18-.17.22-.3v-.02l.1-.3.06-.1.04-.1.04-.07c.04-.08.1-.14.2-.17l.04-.02c.08-.02.13-.1.13-.18 0-.1.05-.18.1-.25l.08-.07.2-.26v-.02c.06-.08.1-.17.12-.27.02-.1 0-.2-.04-.3l-.02-.04c-.04-.1-.06-.17-.07-.26l-.03-.28-.03-.3c0-.1.04-.2.1-.3.07-.08.12-.18.16-.28v-.04l.02-.02c.02-.1-.03-.2-.12-.2-.1-.05-.2-.13-.23-.25l-.03-.06c-.05-.18-.08-.36-.08-.54l.02-.5v-.03c0-.17-.14-.3-.3-.3h-.02c-.2 0-.36-.06-.5-.2l-.08-.1-.2-.23-.26-.3c-.1-.14-.2-.26-.33-.38-.1-.1-.25-.2-.4-.22l-.2-.03c-.1-.02-.23-.07-.34-.14-.08-.06-.2-.04-.28.04l-.13.14-.06.04c-.07.02-.14-.02-.17-.1-.04-.12-.04-.26.02-.38v-.06c0-.07-.06-.12-.12-.1h-.16c-.18 0-.36-.02-.53-.1l-.1-.04c-.1-.05-.22-.08-.33-.08-.1 0-.2.02-.3.08l-.04.03c-.12.08-.26.12-.4.13h-.33c-.15 0-.3.05-.4.13-.13.08-.27.13-.42.16l-.27.04c-.12.03-.25.08-.36.17-.1.1-.24.16-.37.2l-.05.02c-.16.05-.3.15-.4.3l-.12.12c-.07.1-.07.22 0 .32.06.1.18.13.3.1l.15-.06c.08-.03.17 0 .24.04.06.05.15.08.24.07l.25-.03c.14 0 .28 0 .42.04.15.05.28.1.4.2s.25.14.4.16c.15.02.3.05.44.1l.1.02c.1.03.18.1.24.2.05.08.1.2.1.3v.03c0 .12.1.2.2.2h.06c.16 0 .33.02.5.07l.07.03c.1.04.2.1.27.2.08.1.13.2.16.3l.03.14c.03.15.04.3.04.46v.05c0 .1.07.2.18.24.1.02.22.06.33.12l.05.02c.13.08.26.18.36.3l.05.07c.13.15.2.34.2.53v.07c0 .15-.03.3-.08.44-.04.12 0 .26.13.3l.07.05c.15.06.28.17.38.3.1.15.14.32.14.5v.3c-.02.1-.05.18-.1.25s-.05.17 0 .24l.06.1zm-6.4-5.12h-.02c-.04 0-.06.05-.05.1l.04.2c.04.16.06.32.08.48.02.16.1.3.22.4h.04c.15.12.24.3.25.48v.5c-.02.1 0 .2.06.28l.05.05c.1.12.14.26.15.4l.03.55c0 .13-.08.24-.2.26l-.1.02c-.07 0-.1.08-.1.15 0 .08.03.17.06.25v.02c.03.1.04.2.03.3l-.04.27c-.04.2-.1.38-.2.56l-.07.12c-.05.1-.12.16-.2.2-.1.04-.17.12-.2.22l-.08.36c-.05.2-.14.4-.26.6h-.02c-.12.16-.27.3-.45.4l-.12.08-.3.15c-.1.04-.16.13-.18.24l-.05.33c-.03.2-.1.37-.24.5l-.13.15-.15.15L11 21c-.12.14-.3.2-.5.17l-.36-.07-.33-.04h-.09c-.04.04-.05.1-.02.16.07.12.18.2.3.2l.22.04c.1 0 .22.05.32.1.1.07.2.12.32.15h.02c.13.05.27.06.4.05l.15-.02c.17-.02.33 0 .47.06l.12.04c.05.02.13 0 .18-.05.06-.06.12-.1.2-.13l.08-.02c.13-.04.26-.06.4-.06h.08c.12 0 .23.02.33.08l.04.02c.07.03.15 0 .2-.06.03-.07.1-.14.17-.2l.25-.17.16-.1.08-.05c.1-.07.24-.1.36-.1l.36-.03c.14-.02.26-.12.3-.26.04-.15.1-.3.2-.43s.2-.24.3-.34c.13-.1.26-.15.4-.16h.08c.16-.03.28-.18.27-.34v-.02V18.77c.02-.1.06-.23.12-.33l.2-.3.08-.1c.06-.05.1-.12.17-.2l.1-.13c.06-.1.06-.23-.02-.32-.1-.1-.15-.24-.17-.38v-.04c-.02-.16-.02-.33.03-.5v-.05c.05-.13.12-.26.2-.38.08-.1.07-.24-.03-.32l-.17-.15c-.14-.12-.22-.3-.24-.48l-.02-.2c0-.06 0-.13-.02-.2l-.02-.15c-.02-.17-.12-.3-.26-.4l-.07-.02c-.1-.06-.2-.15-.28-.27-.08-.1-.12-.24-.15-.38l-.03-.17c0-.06-.04-.1-.1-.13l-.16-.05-.32-.1c-.1-.02-.2-.1-.27-.17h-.02c-.06-.08-.16-.08-.22-.02l-.1.1c-.02.03-.04.04-.07.03-.06 0-.1-.05-.08-.1.02-.16-.04-.32-.17-.42l-.13-.1-.3-.2c-.08-.03-.2 0-.24.1l-.04.06c0 .02-.03.03-.04.04-.04 0-.1 0-.1-.05l-.03-.05c-.03-.06-.1-.1-.16-.12zm-1.2 1l-.05-.05c-.05-.04-.1-.03-.15.02-.07.12-.13.25-.16.38v.02c-.03.13-.15.22-.27.2h-.1-.02c-.14 0-.25.12-.25.26 0 .18-.06.36-.17.5l-.06.06c-.1.13-.25.22-.4.27l-.08.02c-.1.03-.18.1-.2.22 0 .1-.06.2-.14.28l-.1.08c-.12.13-.3.2-.48.22l-.5.05c-.16 0-.3.1-.4.25-.1.15-.25.25-.4.27l-.22.02c-.16.02-.33.02-.5-.02l-.1-.02-.27-.07c-.1-.03-.18 0-.24.07l-.1.13c-.13.15-.32.22-.5.2l-.65-.08c-.1 0-.18-.05-.27-.1-.1-.06-.17-.13-.24-.2l-.25-.3c-.03-.02-.08-.03-.13-.02l-.14.06-.56.14c-.1.03-.23 0-.33-.06-.1-.08-.22-.1-.34-.1H3.2c-.12.03-.2.16-.16.28l.04.2c.03.1.02.22-.03.32s-.04.2.03.3l.06.08c.08.12.2.22.3.32.1.1.2.2.28.33l.15.27c.08.14.2.22.36.22.15 0 .3.05.42.15l.3.28c.08.07.2.08.28.02l.05-.02c.06 0 .1.04.1.1v.05c0 .13.1.25.23.3l.45.1c.16.05.32.1.47.2h.08c.08 0 .15-.07.14-.16v-.35c0-.1.04-.2.12-.24l.05-.02c.05.02.1.06.08.1v.17c0 .13.04.25.13.34.1.1.23.12.34.08.12-.05.24-.06.37-.05l.37.02c.18.02.35 0 .5-.07.18-.06.33-.14.47-.25l.06-.04.3-.27c.1-.1.23-.15.35-.15h.4c.2-.02.38-.2.4-.4l.04-.2c0-.13.06-.25.15-.35.1-.1.2-.16.3-.2l.12-.05c.17-.07.3-.22.36-.4l.06-.24c.05-.2.15-.4.3-.53l.02-.02c.12-.1.14-.3.06-.44l-.03-.07c-.07-.1-.08-.25-.03-.38.05-.14.1-.26.18-.38l.1-.14c.04-.08.04-.2-.02-.27-.06-.08-.1-.18-.1-.28l-.02-.14v-.34c.02-.1 0-.23-.03-.33l-.04-.12zm-1.43-.76v-.03c0-.1-.06-.16-.14-.16h-.26c-.1.02-.2.02-.28 0h-.45c-.23 0-.45-.04-.67-.1l-.24-.06-.2-.06-.45-.15c-.24-.07-.42-.23-.53-.45l-.05-.1c-.07-.15-.22-.23-.37-.2-.17 0-.34 0-.5-.08l-.12-.05c-.23-.1-.4-.3-.4-.57l-.04-.27c-.03-.14-.12-.27-.24-.32-.14-.06-.27-.14-.4-.23l-.05-.03c-.15-.12-.28-.28-.35-.47l-.02-.06c-.05-.16-.06-.33-.02-.5l.02-.06c.04-.13.05-.26.05-.4 0-.12-.05-.24-.14-.33l-.14-.13c-.16-.13-.26-.32-.27-.53-.02-.22-.02-.43.02-.64V6.3v-.03c0-.12-.1-.2-.2-.2H4.2c-.13 0-.24.08-.3.2-.05.14-.13.25-.22.36l-.04.05-.2.2-.1.1c-.1.1-.16.25-.18.4-.02.15-.06.3-.12.44l-.02.05c-.05.12-.13.23-.23.3-.1.08-.17.2-.17.32l-.02.46c0 .2-.03.4-.1.6l-.02.08c-.05.13 0 .27.12.33l.42.18.04.02c.03 0 .04.02.05.05.03.04 0 .1-.03.1l-.1.05c-.06.02-.1.08-.12.15l-.02.1v.02l-.1.56c-.02.08-.02.17-.02.26 0 .08.05.15.12.18l.22.1c.1.06.22.13.3.2l.1.08c.03.04.08.08.12.1l.04.04c.07.06.12.14.14.23l.1.45c0 .12.1.22.2.25l.16.05s.03 0 .05.02l.2.06c.16.05.3.14.42.26.12.1.24.23.34.37l.04.04c.08.1.2.15.32.12s.25-.04.38-.04h.15c.1 0 .23.03.34.1.1.06.23.1.35.15h.03c.12.05.25.03.35-.04.1-.08.23-.12.36-.12l.47.03c.1 0 .2-.02.25-.1h.02l.17-.16.05-.05c.08-.1.2-.14.32-.15h.45c.12 0 .23-.1.28-.2.05-.1.15-.18.27-.2l.2-.04c.08 0 .15-.07.18-.16.03-.1.08-.18.15-.24l.16-.16c.1-.1.15-.2.17-.32z"/>
	</symbol>

	<symbol id="coursera" viewBox="0 0 24 24">
		<path d="M23.992 11.806a5.091 5.091 0 0 0-.018-.279v-.002-.002a5.98 5.98 0 0 0-.99-2.814 6.217 6.217 0 0 0-.867-1.039 6.289 6.289 0 0 0-1.64-1.13 7.016 7.016 0 0 0-3.051-.668 7.35 7.35 0 0 0-2.546.444 6.323 6.323 0 0 0-1.822.996 6.45 6.45 0 0 0-.333.29l-.085.085-.117.125h.001l-.056.055-.026.028-.141.147c-.104.117-.202.234-.296.349v-.002l-.004-.003c-.192.233-.37.476-.5.693-.089.14-.176.283-.259.427l-1.147 2.319.002.001-.06.118-.126.256c-.251.509-.521 1.017-.821 1.435-.672.737-1.431 1.098-2.406 1.098-.068 0-.139-.003-.209-.008-.588-.023-1.092-.162-1.539-.427a2.576 2.576 0 0 1-.994-1.03 2.659 2.659 0 0 1-.326-1.369l.002-.034c.031-.76.321-1.352.904-1.861.142-.124.291-.228.446-.32.021-.013.044-.024.065-.036.434-.237.927-.355 1.492-.355l.176.005c.899.034 1.592.314 2.145.863l1.734-3.113a6.845 6.845 0 0 0-1.399-.71c-.019-.007-.04-.016-.06-.022-.062-.022-.123-.045-.186-.065a7.425 7.425 0 0 0-1.716-.348 5.545 5.545 0 0 1-.046-.006c-.091-.005-.184-.016-.275-.02a9.966 9.966 0 0 0-.297-.007h-.055a7.005 7.005 0 0 0-3.028.67 6.176 6.176 0 0 0-2.502 2.166A6.006 6.006 0 0 0 0 12.087c-.002 1.564.568 2.938 1.701 4.093 1.184 1.211 2.721 1.864 4.567 1.941.118.005.235.008.353.008 1.045 0 2.011-.186 2.878-.558.217-.093.427-.201.642-.322.117-.067.228-.139.338-.215l.08-.055.137-.093c.164-.118.317-.246.467-.381l.052-.05c.088-.083.176-.168.259-.255l.311-.352.118-.148.056-.081.055-.079c.462-.776 1.965-3.601 1.965-3.601v-.006l.09-.172.074-.135c.222-.403.382-.689.594-.99l.006-.01c.493-.717 1.344-1.227 2.346-1.313 1.68-.145 3.152.959 3.287 2.465.135 1.507-1.117 2.846-2.798 2.991a3.417 3.417 0 0 1-1.011-.064l-.009.003c-1.232-.257-2.017-1.155-2.404-1.558l-1.617 2.974s.503.506.847.759c.346.253.791.501 1.146.656a7.151 7.151 0 0 0 2.838.589c.121 0 .097 0 .222-.005 1.844-.077 3.489-.784 4.675-1.995 1.123-1.15 1.733-2.463 1.738-4.018v-.047l-.011-.257z"/>
	</symbol>

	<symbol id="facebook" viewBox="0 0 24 24">
		<path d="M22.676 0H1.324C.593 0 0 .593 0 1.324v21.352C0 23.408.593 24 1.324 24h11.494v-9.294H9.689v-3.621h3.129V8.41c0-3.099 1.894-4.785 4.659-4.785 1.325 0 2.464.097 2.796.141v3.24h-1.921c-1.5 0-1.792.721-1.792 1.771v2.311h3.584l-.465 3.63H16.56V24h6.115c.733 0 1.325-.592 1.325-1.324V1.324C24 .593 23.408 0 22.676 0"/>
	</symbol>

	<symbol id="github" viewBox="0 0 24 24">
		<path d="M12 .297c-6.63 0-12 5.373-12 12 0 5.303 3.438 9.8 8.205 11.385.6.113.82-.258.82-.577 0-.285-.01-1.04-.015-2.04-3.338.724-4.042-1.61-4.042-1.61C4.422 18.07 3.633 17.7 3.633 17.7c-1.087-.744.084-.729.084-.729 1.205.084 1.838 1.236 1.838 1.236 1.07 1.835 2.809 1.305 3.495.998.108-.776.417-1.305.76-1.605-2.665-.3-5.466-1.332-5.466-5.93 0-1.31.465-2.38 1.235-3.22-.135-.303-.54-1.523.105-3.176 0 0 1.005-.322 3.3 1.23.96-.267 1.98-.399 3-.405 1.02.006 2.04.138 3 .405 2.28-1.552 3.285-1.23 3.285-1.23.645 1.653.24 2.873.12 3.176.765.84 1.23 1.91 1.23 3.22 0 4.61-2.805 5.625-5.475 5.92.42.36.81 1.096.81 2.22 0 1.606-.015 2.896-.015 3.286 0 .315.21.69.825.57C20.565 22.092 24 17.592 24 12.297c0-6.627-5.373-12-12-12"/>
	</symbol>

	<symbol id="gitlab" viewBox="0 0 24 24">
		<path d="M23.955 13.587l-1.342-4.135-2.664-8.189c-.135-.423-.73-.423-.867 0L16.418 9.45H7.582L4.919 1.263C4.783.84 4.185.84 4.05 1.26L1.386 9.449.044 13.587c-.121.375.014.789.331 1.023L12 23.054l11.625-8.443c.318-.235.453-.647.33-1.024"/>
	</symbol>

	<symbol id="gmail" viewBox="0 0 24 24">
		<path d="M24 4.5v15c0 .85-.65 1.5-1.5 1.5H21V7.387l-9 6.463-9-6.463V21H1.5C.649 21 0 20.35 0 19.5v-15c0-.425.162-.8.431-1.068C.7 3.16 1.076 3 1.5 3H2l10 7.25L22 3h.5c.425 0 .8.162 1.069.432.27.268.431.643.431 1.068z"/>
	</symbol>

	<symbol id="goodreads" viewBox="0 0 24 24">
		<path d="M19.525 15.977V.49h-2.059v2.906h-.064c-.211-.455-.481-.891-.842-1.307-.36-.412-.767-.777-1.232-1.094-.466-.314-.962-.561-1.519-.736C13.256.09 12.669 0 12.038 0c-1.21 0-2.3.225-3.246.67-.947.447-1.743 1.057-2.385 1.83-.642.773-1.133 1.676-1.47 2.711-.336 1.037-.506 2.129-.506 3.283 0 1.199.141 2.326.425 3.382.286 1.057.737 1.976 1.368 2.762.631.78 1.412 1.397 2.375 1.833.961.436 2.119.661 3.471.661 1.248 0 2.33-.315 3.262-.946s1.638-1.473 2.119-2.525h.061v2.284c0 2.044-.421 3.607-1.264 4.705-.84 1.081-2.224 1.638-4.146 1.638-.572 0-1.128-.061-1.669-.181-.542-.12-1.036-.315-1.487-.57-.437-.271-.827-.601-1.143-1.038-.316-.435-.526-.961-.632-1.593H5.064c.067.887.315 1.654.737 2.3.424.646.961 1.172 1.602 1.593.641.406 1.367.706 2.172.902.811.194 1.639.3 2.494.3 1.383 0 2.541-.195 3.486-.555.947-.376 1.714-.902 2.301-1.608.601-.708 1.021-1.549 1.293-2.556.27-1.007.42-2.134.42-3.367l-.044.062zm-7.484-.557c-.955 0-1.784-.189-2.479-.571-.697-.38-1.277-.882-1.732-1.503-.467-.621-.797-1.332-1.022-2.139s-.332-1.633-.332-2.484c0-.871.105-1.725.301-2.563.21-.84.54-1.587.992-2.24.451-.652 1.037-1.182 1.728-1.584s1.533-.605 2.51-.605 1.803.209 2.495.621c.676.415 1.247.959 1.683 1.634.436.677.751 1.429.947 2.255.195.826.285 1.656.285 2.482 0 .852-.12 1.678-.345 2.484-.226.807-.572 1.518-1.038 2.139-.465.621-1.021 1.123-1.698 1.503-.676.382-1.458.571-2.359.571h.064z"/>
	</symbol>

	<symbol id="hackerrank" viewBox="0 0 24 24">
		<path d="M12 0c1.285 0 9.75 4.886 10.392 6 .645 1.115.645 10.885 0 12S13.287 24 12 24s-9.75-4.885-10.395-6c-.641-1.115-.641-10.885 0-12C2.25 4.886 10.715 0 12 0zm2.295 6.799c-.141 0-.258.115-.258.258v3.875H9.963V6.908h.701c.141 0 .254-.115.254-.258 0-.094-.049-.176-.123-.221L9.223 4.92c-.049-.063-.141-.109-.226-.109-.084 0-.16.045-.207.107L7.11 6.43c-.072.045-.12.126-.12.218 0 .143.113.258.255.258h.704l.008 10.035c0 .145.111.258.254.258h1.492c.142 0 .259-.115.259-.256v-4.004h4.073v4.152h-.699c-.143 0-.256.115-.256.258 0 .092.048.174.119.219l1.579 1.51c.044.061.141.109.225.109.085 0 .159-.045.208-.109l1.679-1.51c.072-.045.12-.127.12-.219 0-.143-.115-.258-.255-.258h-.704l-.007-10.034c0-.145-.114-.26-.255-.26h-1.494v.002z"/>
	</symbol>

	<symbol id="keybase" viewBox="0 0 24 24">
		<path d="M10.446 21.371c0 .528-.428.953-.954.953-.525 0-.954-.425-.954-.953 0-.526.428-.954.953-.954.524 0 .951.431.951.955m5.922-.001c0 .528-.428.953-.955.953-.526 0-.952-.425-.952-.953 0-.526.423-.954.949-.954s.954.431.954.955"/><path d="M20.904 12.213l-.156-.204c-.046-.06-.096-.116-.143-.175-.045-.061-.094-.113-.141-.169-.104-.12-.209-.239-.319-.359l-.076-.08-.091-.099-.135-.131c-.015-.018-.032-.034-.05-.053-1.16-1.139-2.505-1.986-3.955-2.504l-.23-.078c.012-.027.024-.055.035-.083.41-1.064.367-2.223-.12-3.255-.491-1.035-1.356-1.8-2.438-2.16-.656-.216-1.23-.319-1.711-.305-.033-.105-.1-.577.496-1.848L10.663 0l-.287.399c-.33.455-.648.895-.945 1.328-.328-.345-.766-.552-1.245-.58L6.79 1.061h-.012c-.033-.003-.07-.003-.104-.003-.99 0-1.81.771-1.87 1.755l-.088 1.402v.003c-.061 1.029.727 1.915 1.755 1.979l1.002.061c-.065.84.073 1.62.405 2.306-1.346.562-2.586 1.401-3.66 2.484C.913 14.391.913 18.051.913 20.994v1.775l1.305-1.387c.266.93.652 1.807 1.145 2.615H5.06c-.833-1.114-1.419-2.426-1.68-3.848l1.913-2.03-.985 3.091 1.74-1.268c3.075-2.234 6.744-2.75 10.91-1.529 1.805.532 3.56.039 4.473-1.257l.104-.165c.091.498.141.998.141 1.496 0 1.563-.255 3.687-1.38 5.512h1.611c.776-1.563 1.181-3.432 1.181-5.512-.001-2.199-.786-4.421-2.184-6.274zM8.894 6.191c.123-1.002.578-1.949 1.23-2.97.025.05.054.097.084.144.264.398.713.625 1.199.605.217-.008.605.025 1.233.232.714.236 1.286.744 1.608 1.425s.349 1.442.079 2.149c-.173.445-.454.82-.806 1.109l-.408-.502-.002-.003c-.279-.341-.694-.535-1.134-.535-.335 0-.664.117-.925.33-.334.27-.514.66-.534 1.058-1.2-.541-1.8-1.643-1.628-3.041l.004-.001zm4.304 5.11l-.519.425c-.046.036-.095.053-.146.053-.066 0-.133-.03-.177-.085l-.111-.135c-.083-.1-.067-.25.034-.334l.51-.42-1.055-1.299c-.109-.133-.091-.33.044-.436.058-.048.126-.072.194-.072.091 0 .181.038.24.113l2.963 3.645c.109.135.09.33-.042.436-.039.029-.082.053-.126.063-.023.006-.045.009-.07.009-.09 0-.178-.04-.24-.113l-.295-.365-1.045.854c-.046.037-.1.055-.154.055-.068 0-.139-.03-.186-.09l-.477-.579c-.082-.102-.068-.252.035-.336l1.051-.857-.426-.533-.002.001zM7.753 4.866l-1.196-.075c-.255-.015-.45-.235-.435-.488l.09-1.401c.014-.245.216-.436.461-.436h.024l1.401.091c.123.006.236.06.317.152.083.094.123.21.116.336l-.007.101c-.32.567-.585 1.134-.773 1.72h.002zm12.524 11.481c-.565.805-1.687 1.081-2.924.718-3.886-1.141-7.396-.903-10.468.701l1.636-5.123-5.291 5.609c.099-3.762 2.453-6.966 5.758-8.311.471.373 1.034.66 1.673.841.16.044.322.074.48.102-.183.458-.119.997.21 1.407l.075.09c-.172.45-.105.975.221 1.374l.475.582c.266.325.659.513 1.079.513.321 0 .635-.111.886-.314l.285-.232c.174.074.367.113.566.113.113 0 .222-.01.33-.035.218-.05.424-.15.598-.291.623-.51.72-1.435.209-2.06l-1.67-2.056c.145-.117.281-.244.408-.381.135.037.271.078.4.12.266.097.533.198.795.315 1.005.445 1.954 1.1 2.771 1.897.029.03.059.055.085.083l.17.175c.038.039.076.079.111.12.079.085.16.175.239.267l.126.15c.045.053.086.104.13.16l.114.15c.04.051.079.102.117.154.838 1.149.987 2.329.404 3.157v.005z"/><path d="M7.719 4.115l-.835-.051.053-.835.834.051-.052.835z"/>
	</symbol>

	<symbol id="khan_academy" viewBox="0 0 24 24">
		<path d="M2.469 22.395S-1.229 13.553 5.401 6.96C11.415.969 20.5.041 22.076 0c0 0 2.438 8.006-3.651 17.081-6.083 9.075-14.521 6.614-14.521 6.614s8.336-10.626 7.332-10.561c-.701.041-5.076 4.856-8.768 9.263"/>
	</symbol>

	<symbol id="linkedin" viewBox="0 0 24 24">
		<path d="M20.447 20.452h-3.554v-5.569c0-1.328-.027-3.037-1.852-3.037-1.853 0-2.136 1.445-2.136 2.939v5.667H9.351V9h3.414v1.561h.046c.477-.9 1.637-1.85 3.37-1.85 3.601 0 4.267 2.37 4.267 5.455v6.286zM5.337 7.433c-1.144 0-2.063-.926-2.063-2.065 0-1.138.92-2.063 2.063-2.063 1.14 0 2.064.925 2.064 2.063 0 1.139-.925 2.065-2.064 2.065zm1.782 13.019H3.555V9h3.564v11.452zM22.225 0H1.771C.792 0 0 .774 0 1.729v20.542C0 23.227.792 24 1.771 24h20.451C23.2 24 24 23.227 24 22.271V1.729C24 .774 23.2 0 22.222 0h.003z"/>
	</symbol>

	<symbol id="medium" viewBox="0 0 24 24">
		<path d="M0 0v24h24V0H0zm19.938 5.686L18.651 6.92a.376.376 0 0 0-.143.362v9.067a.376.376 0 0 0 .143.361l1.257 1.234v.271h-6.322v-.27l1.302-1.265c.128-.128.128-.165.128-.36V8.99l-3.62 9.195h-.49L6.69 8.99v6.163a.85.85 0 0 0 .233.707l1.694 2.054v.271H3.815v-.27L5.51 15.86a.82.82 0 0 0 .218-.707V8.027a.624.624 0 0 0-.203-.527L4.019 5.686v-.27h4.674l3.613 7.923 3.176-7.924h4.456v.271z"/>
	</symbol>

	<symbol id="microsoft" viewBox="0 0 24 24">
		<path d="M11.4 24H0V12.6h11.4V24zM24 24H12.6V12.6H24V24zM11.4 11.4H0V0h11.4v11.4zm12.6 0H12.6V0H24v11.4z"/>
	</symbol>

	<symbol id="stack_overflow" viewBox="0 0 24 24">
		<path d="M18.986 21.865v-6.404h2.134V24H1.844v-8.539h2.13v6.404h15.012zM6.111 19.731H16.85v-2.137H6.111v2.137zm.259-4.852l10.48 2.189.451-2.07-10.478-2.187-.453 2.068zm1.359-5.056l9.705 4.53.903-1.95-9.706-4.53-.902 1.936v.014zm2.715-4.785l8.217 6.855 1.359-1.62-8.216-6.853-1.35 1.617-.01.001zM15.751 0l-1.746 1.294 6.405 8.604 1.746-1.294L15.749 0h.002z"/>
	</symbol>

	<symbol id="pocket" viewBox="0 0 24 24">
		<path d="M18.813 10.259l-5.646 5.419c-.32.305-.73.458-1.141.458-.41 0-.821-.153-1.141-.458l-5.646-5.419c-.657-.628-.677-1.671-.049-2.326.63-.657 1.671-.679 2.325-.05l4.511 4.322 4.517-4.322c.66-.631 1.697-.607 2.326.049.631.645.615 1.695-.045 2.326l-.011.001zm5.083-7.546c-.299-.858-1.125-1.436-2.041-1.436H2.179c-.9 0-1.717.564-2.037 1.405-.094.25-.142.511-.142.774v7.245l.084 1.441c.348 3.277 2.047 6.142 4.682 8.139.045.036.094.07.143.105l.03.023c1.411 1.03 2.989 1.728 4.694 2.072.786.158 1.591.24 2.389.24.739 0 1.481-.067 2.209-.204.088-.029.176-.045.264-.06.023 0 .049-.015.074-.029 1.633-.36 3.148-1.036 4.508-2.025l.029-.031.135-.105c2.627-1.995 4.324-4.862 4.686-8.148L24 10.678V3.445c0-.251-.031-.5-.121-.742l.017.01z"/>
	</symbol>

	<symbol id="sourceforge" viewBox="0 0 24 24">
		<path d="M2.43 11.361c0-.372.303-.705.675-.705h6.968c.271-.003.486-.219.486-.488V8.713c0-.27-.219-.487-.488-.487H2.43C1.088 8.227 0 9.314 0 10.654v2.695c0 1.342 1.086 2.431 2.426 2.431h5.021c.372 0 .676.331.676.706v1.282c0 .371-.304.707-.676.707H.486c-.271 0-.485.217-.485.486v1.453c0 .268.216.486.485.486H8.13c1.34 0 2.426-1.087 2.426-2.427v-2.697c0-1.34-1.086-2.428-2.427-2.428H3.104c-.372 0-.675-.334-.675-.704v-1.283zm21.088-3.13h-5.024V5.525h5.02c.266 0 .483-.217.483-.486V3.585c0-.271-.215-.486-.484-.486h-5.019c-1.34 0-2.427 1.087-2.427 2.427v2.706H13.74c-.27 0-.484.218-.484.485v1.459c0 .268.216.484.483.484h2.325v7.953c0 .24.099.284.303.284.488 0 2.124-.91 2.124-1.688v-6.551h5.024c.266 0 .484-.218.484-.484v-1.46c0-.266-.219-.483-.484-.483h.003z"/>
	</symbol>

	<symbol id="twitch" viewBox="0 0 24 24">
		<path d="M2.089 0L.525 4.175v16.694h5.736V24h3.132l3.127-3.132h4.695l6.26-6.258V0H2.089zm2.086 2.085H21.39v11.479l-3.652 3.652H12l-3.127 3.127v-3.127H4.175V2.085z"/><path d="M9.915 12.522H12v-6.26H9.915v6.26zm5.735 0h2.086v-6.26H15.65v6.26z"/>
	</symbol>

	<symbol id="twitter" viewBox="0 0 24 24">
		<path d="M23.954 4.569c-.885.389-1.83.654-2.825.775 1.014-.611 1.794-1.574 2.163-2.723-.951.555-2.005.959-3.127 1.184-.896-.959-2.173-1.559-3.591-1.559-2.717 0-4.92 2.203-4.92 4.917 0 .39.045.765.127 1.124C7.691 8.094 4.066 6.13 1.64 3.161c-.427.722-.666 1.561-.666 2.475 0 1.71.87 3.213 2.188 4.096-.807-.026-1.566-.248-2.228-.616v.061c0 2.385 1.693 4.374 3.946 4.827-.413.111-.849.171-1.296.171-.314 0-.615-.03-.916-.086.631 1.953 2.445 3.377 4.604 3.417-1.68 1.319-3.809 2.105-6.102 2.105-.39 0-.779-.023-1.17-.067 2.189 1.394 4.768 2.209 7.557 2.209 9.054 0 13.999-7.496 13.999-13.986 0-.209 0-.42-.015-.63.961-.689 1.8-1.56 2.46-2.548l-.047-.02z"/>
	</symbol>

	<symbol id="youtube" viewBox="0 0 24 24">
		<path class="a" d="M23.495 6.205a3.007 3.007 0 0 0-2.088-2.088c-1.87-.501-9.396-.501-9.396-.501s-7.507-.01-9.396.501A3.007 3.007 0 0 0 .527 6.205a31.247 31.247 0 0 0-.522 5.805 31.247 31.247 0 0 0 .522 5.783 3.007 3.007 0 0 0 2.088 2.088c1.868.502 9.396.502 9.396.502s7.506 0 9.396-.502a3.007 3.007 0 0 0 2.088-2.088 31.247 31.247 0 0 0 .5-5.783 31.247 31.247 0 0 0-.5-5.805zM9.609 15.601V8.408l6.264 3.602z"/>
	</symbol>

	<symbol id="devto" viewBox="0 0 24 24">
		<path d="M7.42 10.05c-.18-.16-.46-.23-.84-.23H6l.02 2.44.04 2.45.56-.02c.41 0 .63-.07.83-.26.24-.24.26-.36.26-2.2 0-1.91-.02-1.96-.29-2.18z"/><path d="M0 4.94v14.12h24V4.94H0zM8.56 15.3c-.44.58-1.06.77-2.53.77H4.71V8.53h1.4c1.67 0 2.16.18 2.6.9.27.43.29.6.32 2.57.05 2.23-.02 2.73-.47 3.3zm5.09-5.47h-2.47v1.77h1.52v1.28l-.72.04-.75.03v1.77l1.22.03 1.2.04v1.28h-1.6c-1.53 0-1.6-.01-1.87-.3l-.3-.28v-3.16c0-3.02.01-3.18.25-3.48.23-.31.25-.31 1.88-.31h1.64v1.3zm4.68 5.45c-.17.43-.64.79-1 .79-.18 0-.45-.15-.67-.39-.32-.32-.45-.63-.82-2.08l-.9-3.39-.45-1.67h.76c.4 0 .75.02.75.05 0 .06 1.16 4.54 1.26 4.83.04.15.32-.7.73-2.3l.66-2.52.74-.04c.4-.02.73 0 .73.04 0 .14-1.67 6.38-1.8 6.68z"/>
	</symbol>

	<symbol id="devrant" viewBox="0 0 24 24">
		<path d="M11.72 0C5.482-.015 1.592 4.046 1.701 10.322c-.074 3.907 1.437 7.002 4.127 8.734.663.405 1.364.737 2.137.995l2.174 3.353c.333.848.7.774.848-.11l.59-2.69h.442c2.469.073 4.57-.517 6.228-1.585 2.616-1.733 4.126-4.791 4.053-8.697C22.41 3.948 18.431-.144 12.019.004c-.1-.002-.2-.004-.299-.004zm4.571 4.636c.258 0 .516.092.7.276h.001c.185.185.295.442.295.737 0 .148 0 .295-.074.406l-3.722 9.25c-.258.441-.627.552-.885.552a1.007 1.007 0 0 1-.994-.995c0-.148.037-.258.073-.406l3.685-9.212c.073-.147.148-.258.221-.332a.989.989 0 0 1 .7-.276zM9.456 7.5c.313 0 .626.12.866.359h.001c.221.221.368.516.331.848 0 .332-.147.589-.368.848-.222.258-.517.369-.848.369-.332 0-.59-.148-.848-.37-.259-.22-.37-.515-.37-.847s.149-.627.37-.848c.24-.24.552-.36.866-.36zm0 4.974c.313 0 .626.12.866.36h.001c.221.258.368.553.331.848a1.2 1.2 0 0 1-.368.848c-.221.258-.516.368-.848.368a1.2 1.2 0 0 1-.848-.368c-.259-.222-.37-.516-.37-.848s.149-.627.37-.848c.24-.24.552-.36.866-.36z"/>
	</symbol>

	<symbol id="freecodecamp" viewBox="0 0 24 24">
		<path d="M23.967 12.317c0 2.5-.854 4.718-2.598 6.681-.635.729-1.143 1.076-1.488 1.076-.121 0-.256-.033-.346-.125-.092-.096-.15-.223-.15-.35 0-.188.225-.475.674-.889 1.814-1.736 2.727-3.895 2.727-6.456 0-2.846-.943-5.152-2.816-6.936-.374-.342-.57-.627-.57-.852 0-.12.061-.256.164-.345.105-.09.225-.149.346-.149.418 0 1.049.509 1.842 1.527C23.25 7.402 24 9.694 24 12.345l-.033-.028zM0 11.682c0-2.499.854-4.719 2.598-6.681.635-.729 1.143-1.076 1.49-1.076.119 0 .254.033.344.125.09.095.15.189.15.314 0 .188-.225.477-.674.918-1.781 1.744-2.711 3.895-2.711 6.462 0 2.847.951 5.158 2.821 6.935.38.344.569.633.569.854 0 .127-.061.256-.16.348-.099.094-.225.16-.352.16-.436 0-1.033-.51-1.828-1.518C.734 16.654 0 14.373 0 11.682zm17.699 6.869H6.715c-.35 0-.668-.287-.668-.666 0-.383.285-.668.668-.668h10.984c.348 0 .668.285.668.668-.006.385-.287.666-.668.666zm-6-8.919c.197-.025.344.615.361.749.046.353-.071.693-.231 1.003-.597 1.165-1.978 2.104-1.612 3.575.166.635.494 1.076 1.514 1.619-.345.119-.824-.111-1.094-.301-1.199-.816-1.963-2.156-1.888-3.619.03-.464.12-.92.239-1.368.375-1.281 1.139-2.401 1.588-3.647.225-.599.39-1.324.211-1.953-.09-.309-.255-.599-.465-.849-.061-.076-.404-.465-.539-.42.6-.225 1.139-.016 1.662.299.404.24.72.585.959.975.449.719.629 1.542.719 2.381.031.345-.015 1.184.39 1.35.419.179.749-.525.839-.81.195-.645-.06-1.259-.314-1.858.061.121.285.255.389.346l.36.344c.435.449.704 1.004.884 1.604.164.539.24 1.093.27 1.633.074 1.123-.18 2.278-.629 3.311-.195.463-.449.898-.779 1.273-.319.373-.748.613-1.093.957.808-.809 1.238-2.127 1.123-3.131-.06-.553-.239-1.063-.659-1.572 0 0 .045.358.087.583.075.495-.255 1.02-.644.959-.285-.029-.136-.643-.105-.838.105-.584-.03-1.154-.244-1.693-.209-.509-.6-.914-1.198-.823l-.101-.079z"/>
	</symbol>

</svg>